<svg width="358" height="83" viewBox="0 0 358 83" fill="none" xmlns="http://www.w3.org/2000/svg">
<g clip-path="url(#clip0_74_7190)">
<path d="M9.59001 44.52C-0.559988 53.02 -3.03999 66.77 4.02001 75.2C11.1 83.64 25.05 83.6 35.21 75.09C45.35 66.59 47.86 52.86 40.78 44.41C33.71 35.97 19.74 36.01 9.59001 44.51M34.68 70.98C26.55 77.8 15.36 77.83 9.70001 71.06C4.03001 64.3 6.03001 53.3 14.15 46.49C22.28 39.68 33.46 39.64 39.14 46.4C44.8 53.16 42.81 64.16 34.67 70.98" fill="#314080"/>
<path d="M15.23 47.4C7.84001 53.6 6.02001 63.6 11.18 69.76C16.33 75.91 26.5 75.88 33.89 69.69C41.28 63.49 43.11 53.48 37.96 47.33C32.8 41.18 22.63 41.22 15.23 47.4ZM33.52 66.67C27.58 71.63 19.43 71.66 15.31 66.73C11.18 61.8 12.64 53.79 18.57 48.83C24.49 43.86 32.64 43.83 36.77 48.76C40.9 53.69 39.44 61.71 33.52 66.67Z" fill="#314080"/>
<path d="M44.28 39.09C52.1 46.85 66 45.51 75.32 36.11C84.64 26.71 85.85 12.8 78.03 5.04997C70.22 -2.70003 56.32 -1.38003 46.99 8.01997C37.67 17.41 36.46 31.34 44.28 39.09ZM46.39 37.62C40.12 31.41 41.1 20.27 48.57 12.73C56.03 5.19997 67.16 4.12997 73.43 10.35C79.7 16.56 78.71 27.7 71.26 35.23C63.78 42.76 52.65 43.82 46.39 37.61" fill="#314080"/>
<path d="M47.41 36.52C53.11 42.17 63.24 41.2 70.03 34.35C76.82 27.5 77.71 17.37 72 11.72C66.31 6.05998 56.18 7.02998 49.4 13.89C42.6 20.74 41.71 30.87 47.41 36.52ZM48.95 35.46C44.38 30.94 45.09 22.82 50.54 17.33C55.99 11.85 64.09 11.06 68.66 15.59C73.23 20.12 72.51 28.23 67.07 33.72C61.63 39.21 53.52 39.99 48.96 35.46" fill="#314080"/>
<path d="M29.27 9.71997C22.76 3.04997 12.99 2.03997 7.44001 7.44997C1.90001 12.86 2.68001 22.66 9.18001 29.33C15.69 36 25.46 37.01 31.01 31.6C36.55 26.18 35.78 16.38 29.27 9.71997ZM12.05 28.74C6.83001 23.4 6.21001 15.55 10.66 11.21C15.1 6.86997 22.93 7.68997 28.14 13.02C33.36 18.36 33.99 26.21 29.54 30.55C25.1 34.89 17.26 34.07 12.05 28.73" fill="#314080"/>
<path d="M27.56 13.83C22.81 8.96997 15.69 8.22997 11.66 12.18C7.62001 16.12 8.18001 23.26 12.93 28.12C17.66 32.97 24.78 33.72 28.83 29.77C32.86 25.82 32.3 18.69 27.56 13.83ZM15.01 27.69C11.21 23.8 10.75 18.08 13.99 14.92C17.24 11.76 22.94 12.35 26.74 16.25C30.54 20.14 30.99 25.86 27.76 29.02C24.53 32.18 18.82 31.59 15.02 27.69" fill="#314080"/>
<path d="M50.11 51.3C45.08 57.2 46.77 66.88 53.85 72.92C60.95 78.96 70.78 79.08 75.8 73.17C80.83 67.27 79.16 57.59 72.06 51.55C64.97 45.51 55.13 45.4 50.11 51.31M51.26 52.7C55.29 47.97 63.15 48.06 68.84 52.9C74.52 57.74 75.87 65.5 71.84 70.22C67.82 74.95 59.95 74.87 54.26 70.03C48.58 65.19 47.23 57.43 51.26 52.7Z" fill="#314080"/>
<path d="M52.08 53.35C48.42 57.65 49.64 64.7 54.82 69.11C59.99 73.51 67.14 73.59 70.8 69.29C74.46 64.99 73.24 57.94 68.07 53.54C62.9 49.14 55.74 49.06 52.08 53.35ZM52.91 54.38C55.84 50.93 61.57 51 65.72 54.52C69.86 58.05 70.85 63.7 67.91 67.14C64.98 70.59 59.24 70.52 55.11 66.99C50.96 63.46 49.98 57.81 52.91 54.37" fill="#314080"/>
<path d="M205.2 42.51C205.2 36.78 208.67 31.12 217.18 31.12C225.69 31.12 229.18 36.77 229.18 42.51C229.18 51.03 223.05 53.94 217.18 53.94C211.31 53.94 205.2 51.04 205.2 42.51ZM224.16 42.43C224.16 37.41 220.93 35.34 217.19 35.34C213.45 35.34 210.23 37.41 210.23 42.43C210.23 46.97 212.78 49.73 217.19 49.73C221.6 49.73 224.16 46.98 224.16 42.43Z" fill="#314080"/>
<path d="M270.81 35.63C269.86 32.95 267.43 30.64 260.3 30.64C256.34 30.64 252.35 31.63 252.35 34.39C252.35 35.67 253.09 37.03 259.06 37.77L266.15 38.84C272.87 39.87 276.82 42.47 276.82 47.5C276.82 54.59 270.06 57.23 262.07 57.23C249.2 57.23 246.07 50.89 245.37 48.62L251.01 46.84C252.09 49.03 254.32 52.2 262.23 52.2C267.01 52.2 270.97 50.63 270.97 48.04C270.97 46.1 268.75 44.83 264.46 44.29L257.29 43.3C250.36 42.35 246.49 39.34 246.49 34.77C246.49 25.78 258.15 25.78 260.47 25.78C273.37 25.78 275.6 31.75 276.35 33.82L270.82 35.63H270.81Z" fill="#314080"/>
<path d="M118.75 35.63C117.8 32.95 115.37 30.64 108.24 30.64C104.28 30.64 100.28 31.63 100.28 34.39C100.28 35.67 101.02 37.03 107 37.77L114.09 38.84C120.81 39.87 124.78 42.47 124.78 47.5C124.78 54.59 118.01 57.23 110.02 57.23C97.15 57.23 94.02 50.89 93.32 48.62L98.97 46.84C100.04 49.03 102.27 52.2 110.18 52.2C114.96 52.2 118.92 50.63 118.92 48.04C118.92 46.1 116.7 44.83 112.41 44.29L105.24 43.3C98.31 42.35 94.44 39.34 94.44 34.77C94.44 25.78 106.11 25.78 108.41 25.78C121.31 25.78 123.54 31.75 124.28 33.82L118.76 35.63H118.75Z" fill="#314080"/>
<path d="M148.4 53.19L143.47 53.22C143.47 53.22 143.46 51.45 143.46 51.07C141.4 52.26 138.32 53.94 134.11 53.94C131.28 53.94 125.82 52.74 125.82 47.49C125.82 40.28 136.57 39.25 143.45 38.85V37.9C143.45 36.27 141.99 35.11 137.92 35.11C133.38 35.11 132.43 36.78 132.15 37.93H127.01C128.21 32.12 133.9 31.12 137.88 31.12C148.19 31.12 148.4 36.14 148.4 39.09V53.19ZM143.45 42.43C140.59 42.55 138.08 42.95 135.77 43.51C132.7 44.23 131.27 45.26 131.23 47.14C131.19 48.97 132.39 50.12 134.82 50.12C138.56 50.12 141.55 48.49 143.46 47.34V42.44L143.45 42.43Z" fill="#314080"/>
<path d="M150.21 31.84H155.06V34.51C156.62 32.99 158.73 31.12 163.06 31.12C167.39 31.12 171.43 32.99 171.43 39.52V53.22H166.49V41.35C166.49 37.13 165.21 35.34 161.9 35.34C157.96 35.34 156.37 36.97 155.14 38.49V53.22H150.2V31.84H150.21Z" fill="#314080"/>
<path d="M307.77 24.25H302.84V53.2H307.77V24.25Z" fill="#314080"/>
<path d="M331.15 53.23H326.3V50.56C324.83 52.07 322.64 53.94 318.29 53.94C313.94 53.94 309.93 52.07 309.93 45.54V31.85H314.87V43.72C314.87 47.94 316.14 49.74 319.45 49.74C323.39 49.74 324.98 48.1 326.23 46.58V31.85H331.15V53.23Z" fill="#314080"/>
<path d="M352.46 50.48C351.34 51.56 348.88 53.94 343.98 53.94C337.92 53.94 332.7 49.65 332.7 42.39C332.7 35.9 337.13 31.13 344.17 31.13C348.27 31.13 350.26 32.56 352.37 34.08V24.28H357.3V53.23H352.44V50.48H352.46ZM352.38 38.29C350.87 37.06 348.83 35.35 345.25 35.35C341.47 35.35 337.72 37.74 337.72 42.56C337.72 47.38 341.27 49.74 345.1 49.74C348.48 49.74 350.46 48.1 352.38 46.63V38.3V38.29Z" fill="#314080"/>
<path d="M300.71 53.19L295.78 53.22C295.78 53.22 295.77 51.45 295.77 51.07C293.7 52.26 290.64 53.94 286.42 53.94C283.59 53.94 278.13 52.74 278.13 47.49C278.13 40.28 288.88 39.25 295.77 38.85V37.9C295.77 36.27 294.3 35.11 290.24 35.11C285.7 35.11 284.75 36.78 284.46 37.93H279.33C280.51 32.12 286.22 31.12 290.2 31.12C300.51 31.12 300.71 36.14 300.71 39.09V53.19ZM295.77 42.43C292.91 42.55 290.4 42.95 288.09 43.51C285.03 44.23 283.59 45.26 283.56 47.14C283.51 48.97 284.72 50.12 287.14 50.12C290.88 50.12 293.87 48.49 295.78 47.34V42.44L295.77 42.43Z" fill="#314080"/>
<path d="M199.91 47.52C198.57 49.71 195.6 52.2 190.24 52.2C183.81 52.2 178.82 48.57 178.82 41.69C178.82 35.46 182.28 30.8 190.57 30.8C196.82 30.8 199.33 34.17 200.03 35.63L205.29 33.8C203.93 30.68 200.31 25.76 190.24 25.76C178.32 25.76 172.84 32.27 172.84 41.02C172.84 51.94 180.3 57.22 189.78 57.22C199.26 57.22 203.7 53.03 205.37 49.44L199.9 47.51L199.91 47.52Z" fill="#314080"/>
<path d="M244.23 31.22C243.71 31.15 243.27 31.13 242.94 31.13C238.69 31.12 236.53 33.27 235.46 35.03H235.34V31.84H230.4V53.22H235.34V41.87C235.38 40.36 235.38 36.14 241.67 36.14C242.57 36.14 243.43 36.26 244.23 36.43V31.22Z" fill="#314080"/>
<path d="M183.32 78.4C182 79.09 180.56 79.37 179.07 79.37C175.91 79.37 173.61 77.3 173.61 74.05C173.61 70.8 175.91 68.73 179.07 68.73C180.67 68.73 182.09 69.09 183.1 70.03L181.53 71.75C180.93 71.12 180.2 70.79 179.07 70.79C177.17 70.79 175.92 72.16 175.92 74.05C175.92 75.94 177.16 77.31 179.07 77.31C180.04 77.31 180.76 77.04 181.17 76.81V75.17H179.35V73.11H183.31V78.4H183.32Z" fill="#314080"/>
<path d="M185.01 72.16H187.15V73.28H187.18C187.64 72.44 188.24 71.99 189.18 71.99C189.42 71.99 189.7 72.01 189.89 72.06V74.02C189.59 73.93 189.29 73.88 188.97 73.88C187.34 73.88 187.14 74.82 187.14 76.21V79.11H185V72.16H185.01Z" fill="#314080"/>
<path d="M197.52 79.11H195.46V78.17H195.43C195.14 78.71 194.44 79.29 193.4 79.29C191.23 79.29 190.83 77.86 190.83 76V72.17H192.97V75.57C192.97 76.37 192.98 77.4 194.08 77.4C195.18 77.4 195.37 76.53 195.37 75.63V72.17H197.51V79.12L197.52 79.11Z" fill="#314080"/>
<path d="M199.23 72.16H201.2V73.08H201.23C201.56 72.58 202.39 71.99 203.36 71.99C205.42 71.99 206.78 73.48 206.78 75.58C206.78 77.51 205.58 79.28 203.61 79.28C202.72 79.28 201.89 79.04 201.41 78.36H201.38V82.36H199.24V72.15L199.23 72.16ZM202.92 77.39C203.99 77.39 204.64 76.68 204.64 75.63C204.64 74.58 204 73.87 202.92 73.87C201.84 73.87 201.2 74.59 201.2 75.63C201.2 76.67 201.84 77.39 202.92 77.39Z" fill="#314080"/>
<path d="M211.64 71.99C213.78 71.99 215.5 73.42 215.5 75.64C215.5 77.86 213.78 79.29 211.64 79.29C209.5 79.29 207.78 77.86 207.78 75.64C207.78 73.42 209.5 71.99 211.64 71.99ZM211.64 77.39C212.71 77.39 213.36 76.68 213.36 75.63C213.36 74.58 212.72 73.87 211.64 73.87C210.56 73.87 209.92 74.59 209.92 75.63C209.92 76.67 210.56 77.39 211.64 77.39Z" fill="#314080"/>
<path d="M228.29 79.11H226.31V78.19H226.28C225.95 78.69 225.12 79.28 224.15 79.28C222.09 79.28 220.73 77.79 220.73 75.69C220.73 73.76 221.93 71.99 223.9 71.99C224.79 71.99 225.62 72.23 226.1 72.9H226.13V68.29H228.28V79.1L228.29 79.11ZM224.59 73.88C223.52 73.88 222.87 74.6 222.87 75.64C222.87 76.68 223.51 77.4 224.59 77.4C225.67 77.4 226.31 76.69 226.31 75.64C226.31 74.59 225.67 73.88 224.59 73.88Z" fill="#314080"/>
<path d="M236.58 77.91C235.89 78.78 234.76 79.28 233.65 79.28C231.51 79.28 229.79 77.85 229.79 75.63C229.79 73.41 231.51 71.98 233.65 71.98C235.65 71.98 236.91 73.41 236.91 75.63V76.3H231.93C232.1 77.11 232.72 77.64 233.55 77.64C234.25 77.64 234.72 77.28 235.08 76.8L236.58 77.9V77.91ZM234.76 74.85C234.77 74.14 234.22 73.53 233.44 73.53C232.5 73.53 231.98 74.17 231.92 74.85H234.75H234.76Z" fill="#314080"/>
<path d="M242.71 68.99H246.08L248.41 75.59H248.44L250.79 68.99H254.15V79.11H251.92V71.35H251.89L249.23 79.11H247.53L244.97 71.35H244.94V79.11H242.71V68.99Z" fill="#314080"/>
<path d="M262.51 77.91C261.82 78.78 260.69 79.28 259.58 79.28C257.44 79.28 255.72 77.85 255.72 75.63C255.72 73.41 257.44 71.98 259.58 71.98C261.58 71.98 262.84 73.41 262.84 75.63V76.3H257.86C258.03 77.11 258.65 77.64 259.48 77.64C260.18 77.64 260.65 77.28 261.01 76.8L262.51 77.9V77.91ZM260.69 74.85C260.7 74.14 260.15 73.53 259.37 73.53C258.43 73.53 257.91 74.17 257.86 74.85H260.69Z" fill="#314080"/>
<path d="M271.43 79.11H269.46V78.19H269.43C269.1 78.69 268.27 79.28 267.3 79.28C265.24 79.28 263.88 77.79 263.88 75.69C263.88 73.76 265.08 71.99 267.05 71.99C267.94 71.99 268.77 72.23 269.25 72.9H269.28V68.29H271.43V79.1V79.11ZM267.74 73.88C266.67 73.88 266.02 74.6 266.02 75.64C266.02 76.68 266.66 77.4 267.74 77.4C268.82 77.4 269.46 76.69 269.46 75.64C269.46 74.59 268.82 73.88 267.74 73.88Z" fill="#314080"/>
<path d="M274.25 68.73C274.94 68.73 275.49 69.29 275.49 69.97C275.49 70.65 274.93 71.21 274.25 71.21C273.57 71.21 273.01 70.65 273.01 69.97C273.01 69.29 273.57 68.73 274.25 68.73ZM273.17 72.16H275.31V79.11H273.17V72.16Z" fill="#314080"/>
<path d="M281.57 74.41C281.36 74.11 280.95 73.88 280.51 73.88C279.44 73.88 278.79 74.6 278.79 75.64C278.79 76.68 279.43 77.4 280.51 77.4C280.98 77.4 281.33 77.16 281.57 76.87L282.99 78.36C282.32 79.05 281.33 79.29 280.52 79.29C278.38 79.29 276.66 77.86 276.66 75.64C276.66 73.42 278.38 71.99 280.52 71.99C281.34 71.99 282.32 72.23 282.99 72.92L281.57 74.41Z" fill="#314080"/>
<path d="M284.85 68.73C285.54 68.73 286.09 69.29 286.09 69.97C286.09 70.65 285.53 71.21 284.85 71.21C284.17 71.21 283.61 70.65 283.61 69.97C283.61 69.29 284.17 68.73 284.85 68.73ZM283.78 72.16H285.92V79.11H283.78V72.16Z" fill="#314080"/>
<path d="M287.47 72.16H289.53V73.1H289.56C289.85 72.56 290.55 71.99 291.59 71.99C293.76 71.99 294.16 73.42 294.16 75.28V79.11H292.02V75.7C292.02 74.9 292 73.87 290.9 73.87C289.8 73.87 289.61 74.74 289.61 75.64V79.1H287.47V72.15V72.16Z" fill="#314080"/>
<path d="M300.04 78.24H300.01C299.54 78.98 298.68 79.28 297.81 79.28C296.51 79.28 295.34 78.54 295.34 77.14C295.34 74.74 298.26 74.69 300.04 74.69C300.04 73.93 299.41 73.45 298.67 73.45C297.97 73.45 297.38 73.77 296.93 74.28L295.79 73.11C296.58 72.37 297.72 72 298.85 72C301.35 72 302.02 73.27 302.02 75.59V79.12H300.05V78.25L300.04 78.24ZM299.51 76.06C298.85 76.06 297.39 76.12 297.39 77.06C297.39 77.58 297.93 77.82 298.41 77.82C299.25 77.82 300.04 77.38 300.04 76.52V76.06H299.51Z" fill="#314080"/>
<path d="M307.86 68.99H311.62C313.72 68.99 315.47 69.66 315.47 72.06C315.47 74.46 313.85 75.16 311.72 75.16H310.09V79.11H307.86V68.98V68.99ZM310.09 73.28H311.58C312.37 73.28 313.15 73.01 313.15 72.06C313.15 71.02 312.09 70.87 311.23 70.87H310.09V73.27V73.28Z" fill="#314080"/>
<path d="M316.59 72.16H318.73V73.28H318.76C319.22 72.44 319.82 71.99 320.76 71.99C321 71.99 321.28 72.01 321.47 72.06V74.02C321.17 73.93 320.87 73.88 320.55 73.88C318.92 73.88 318.72 74.82 318.72 76.21V79.11H316.58V72.16H316.59Z" fill="#314080"/>
<path d="M323.51 68.73C324.2 68.73 324.75 69.29 324.75 69.97C324.75 70.65 324.19 71.21 323.51 71.21C322.83 71.21 322.27 70.65 322.27 69.97C322.27 69.29 322.83 68.73 323.51 68.73ZM322.44 72.16H324.58V79.11H322.44V72.16Z" fill="#314080"/>
<path d="M325.4 72.16H327.71L329.47 76.88H329.5L331.13 72.16H333.29L330.54 79.11H328.27L325.4 72.16Z" fill="#314080"/>
<path d="M338.44 78.24H338.41C337.94 78.98 337.08 79.28 336.21 79.28C334.91 79.28 333.74 78.54 333.74 77.14C333.74 74.74 336.66 74.69 338.44 74.69C338.44 73.93 337.81 73.45 337.07 73.45C336.37 73.45 335.78 73.77 335.32 74.28L334.17 73.11C334.96 72.37 336.1 72 337.23 72C339.73 72 340.4 73.27 340.4 75.59V79.12H338.43V78.25L338.44 78.24ZM337.91 76.06C337.25 76.06 335.79 76.12 335.79 77.06C335.79 77.58 336.33 77.82 336.8 77.82C337.64 77.82 338.43 77.38 338.43 76.52V76.06H337.9H337.91Z" fill="#314080"/>
<path d="M349.05 79.11H347.08V78.19H347.05C346.72 78.69 345.89 79.28 344.92 79.28C342.86 79.28 341.5 77.79 341.5 75.69C341.5 73.76 342.7 71.99 344.67 71.99C345.56 71.99 346.39 72.23 346.87 72.9H346.9V68.29H349.05V79.1V79.11ZM345.36 73.88C344.29 73.88 343.64 74.6 343.64 75.64C343.64 76.68 344.28 77.4 345.36 77.4C346.44 77.4 347.08 76.69 347.08 75.64C347.08 74.59 346.44 73.88 345.36 73.88Z" fill="#314080"/>
<path d="M355.12 78.24H355.09C354.62 78.98 353.76 79.28 352.89 79.28C351.59 79.28 350.42 78.54 350.42 77.14C350.42 74.74 353.34 74.69 355.12 74.69C355.12 73.93 354.49 73.45 353.75 73.45C353.05 73.45 352.46 73.77 352.01 74.28L350.87 73.11C351.66 72.37 352.8 72 353.93 72C356.43 72 357.1 73.27 357.1 75.59V79.12H355.13V78.25L355.12 78.24ZM354.59 76.06C353.93 76.06 352.47 76.12 352.47 77.06C352.47 77.58 353.01 77.82 353.49 77.82C354.33 77.82 355.12 77.38 355.12 76.52V76.06H354.59Z" fill="#314080"/>
</g>
<defs>
<clipPath id="clip0_74_7190">
<rect width="357.31" height="82.37" fill="white"/>
</clipPath>
</defs>
</svg>
